Coordinates
version=1
nRows=24
nColumns=24
inDegrees=yes

Units are S.I. units (second, meters, Newtons, ...)
Angles are in degrees.

endheader
time	pelvis_tilt	pelvis_list	pelvis_rotation	pelvis_tx	pelvis_ty	pelvis_tz	hip_flexion_r	hip_adduction_r	hip_rotation_r	knee_angle_r	ankle_angle_r	subtalar_angle_r	mtp_angle_r	hip_flexion_l	hip_adduction_l	hip_rotation_l	knee_angle_l	ankle_angle_l	subtalar_angle_l	mtp_angle_l	lumbar_extension	lumbar_bending	lumbar_rotation
      5.93000000	     35.31561109	     -0.78639480	      1.33130643	      1.30647063	      0.68023069	     -0.20377432	    -32.69667491	      3.72449521	     -6.83621102	     -6.03506934	     14.46873971	     15.13981434	      0.00000000	    -18.88905906	     -4.45411863	     -6.71498521	    -69.23768867	      2.76225216	     -7.47203239	      0.00000000	    -62.61616132	      1.08155031	     -1.39853062
      5.93500000	     35.15953924	     -0.73058979	      0.85582318	      1.31176894	      0.68065291	     -0.20348518	    -33.33999574	      3.45078021	     -6.71638139	     -5.41693446	     14.57294410	     15.33673294	      0.00000000	    -17.94683121	     -3.94333039	     -6.97673299	    -68.89926909	      3.41693570	     -6.69303454	      0.00000000	    -62.48771620	      0.70657156	     -1.18438052
      5.94000000	     35.06119032	     -0.78510898	      0.28646575	      1.31701640	      0.68096838	     -0.20322204	    -33.99110659	      3.21164713	     -6.47785428	     -4.87641656	     14.69993475	     15.53031093	      0.00000000	    -17.12013282	     -3.53196375	     -7.38106091	    -68.46650689	      4.13338454	     -5.91010663	      0.00000000	    -62.42273206	      0.34613609	     -0.73337848
      5.94500000	     34.93311832	     -0.73339322	     -0.13121181	      1.32229464	      0.68114965	     -0.20302531	    -34.61911259	      2.97244640	     -6.35954836	     -4.33447450	     14.85990966	     15.57581179	      0.00000000	    -16.22402916	     -3.08080968	     -7.59046374	    -67.98663485	      4.67873248	     -5.10562173	      0.00000000	    -62.31701399	      0.03247535	     -0.52933069
      5.95000000	     34.83932422	     -0.73100978	     -0.54824964	      1.32754505	      0.68121544	     -0.20285438	    -35.25052411	      2.77461092	     -6.19537765	     -3.84774149	     15.05787968	     15.59059586	      0.00000000	    -15.39161600	     -2.70306026	     -7.82274702	    -67.42875987	      5.25415290	     -4.27946339	      0.00000000	    -62.25307947	     -0.24595451	     -0.24499276
      5.95500000	     34.77255216	     -0.73892182	     -0.94842014	      1.33279659	      0.68118071	     -0.20274748	    -35.88542199	      2.58811162	     -6.00607434	     -3.41279375	     15.28807560	     15.52086651	      0.00000000	    -14.61036888	     -2.35178891	     -8.03722014	    -66.78813297	      5.77704356	     -3.48654842	      0.00000000	    -62.21492349	     -0.48833529	      0.04447110
      5.96000000	     34.81129773	     -0.81345672	     -1.44313463	      1.33801449	      0.68110812	     -0.20264572	    -36.59493458	      2.39014041	     -5.64185329	     -3.04322866	     15.53704242	     15.33787442	      0.00000000	    -14.01083163	     -2.04579703	     -8.35488163	    -66.02028287	      6.29236803	     -2.75589743	      0.00000000	    -62.28419403	     -0.74659149	      0.50388122
      5.96500000	     34.74453863	     -0.78401463	     -1.70021192	      1.34327574	      0.68083615	     -0.20264370	    -37.19945004	      2.25215742	     -5.54695128	     -2.68153880	     15.85494628	     15.17695182	      0.00000000	    -13.23420758	     -1.72781331	     -8.40628524	    -65.25170312	      6.68762364	     -2.04808678	      0.00000000	    -62.24268138	     -0.90067530	      0.65493500
      5.97000000	     34.72885807	     -0.79290640	     -1.94417551	      1.34851392	      0.68047876	     -0.20268465	    -37.83139018	      2.14734897	     -5.40182594	     -2.37623361	     16.19613138	     14.96982682	      0.00000000	    -12.54195899	     -1.46217008	     -8.44384533	    -64.40655446	      7.09466657	     -1.35078644	      0.00000000	    -62.25534971	     -1.01000163	      0.85905659
      5.97500000	     34.75137168	     -0.81818046	     -2.16989796	      1.35375093	      0.68004605	     -0.20276062	    -38.48409400	      2.05988106	     -5.23227382	     -2.11708787	     16.57006085	     14.72220574	      0.00000000	    -11.92306404	     -1.22814186	     -8.46423961	    -63.47300802	      7.47188237	     -0.71106418	      0.00000000	    -62.30772677	     -1.09163474	      1.06830767
      5.98000000	     34.75415205	     -0.84015623	     -2.30494489	      1.35893919	      0.67948250	     -0.20297844	    -39.08625185	      2.01480953	     -5.16300915	     -1.91644263	     17.00589996	     14.48660541	      0.00000000	    -11.27371724	     -1.00357943	     -8.38003199	    -62.49238131	      7.81794803	     -0.28846598	      0.00000000	    -62.36302034	     -1.09117606	      1.30709611
      5.98500000	     34.85934058	     -0.89217092	     -2.48907223	      1.36420532	      0.67894677	     -0.20302724	    -39.80478144	      1.96643958	     -4.94050075	     -1.72690639	     17.39874252	     14.19971457	      0.00000000	    -10.81974000	     -0.84967360	     -8.36410893	    -61.37104566	      8.13625333	      0.38554118	      0.00000000	    -62.48252571	     -1.12826269	      1.41804820
      5.99000000	     34.96358843	     -0.93247735	     -2.60065656	      1.36943539	      0.67830332	     -0.20320080	    -40.50138241	      1.94102210	     -4.81304118	     -1.58214028	     17.85755367	     13.93897478	      0.00000000	    -10.36838644	     -0.68803425	     -8.26387279	    -60.19066025	      8.42814838	      0.82513202	      0.00000000	    -62.62128068	     -1.10544637	      1.58950311
      5.99500000	     35.01031672	     -1.00106831	     -2.62139825	      1.37461101	      0.67754044	     -0.20347067	    -41.09410547	      1.99185366	     -4.77228020	     -1.52034646	     18.36067558	     13.73968836	      0.00000000	     -9.85099583	     -0.57948367	     -8.07290688	    -58.96376414	      8.69903554	      1.08240819	      0.00000000	    -62.71579944	     -0.99700565	      1.76598067
      6.00000000	     35.17711711	     -1.04255299	     -2.64550605	      1.37987908	      0.67680472	     -0.20363115	    -41.86568218	      2.01698575	     -4.67169452	     -1.38822366	     18.79800491	     13.50771541	      0.00000000	     -9.53525786	     -0.47717067	     -7.89584740	    -57.61103144	      8.96019171	      1.56018318	      0.00000000	    -62.90541603	     -0.91843036	      1.79787991
      6.00500000	     35.19309012	     -1.14441037	     -2.58932886	      1.38506579	      0.67590557	     -0.20398120	    -42.41133843	      2.13037554	     -4.61999237	     -1.36749240	     19.31781533	     13.38688241	      0.00000000	     -9.03443435	     -0.43920296	     -7.63919512	    -56.23969834	      9.16575179	      1.67420818	      0.00000000	    -62.97590014	     -0.71130892	      1.95914403
      6.01000000	     35.51679451	     -1.13067051	     -2.52502738	      1.39033061	      0.67515284	     -0.20414546	    -43.36419573	      2.15948549	     -4.69755118	     -1.24129612	     19.75145032	     13.24505238	      0.00000000	     -8.97727008	     -0.30866971	     -7.39037905	    -54.66022146	      9.38604279	      1.98679815	      0.00000000	    -63.31691795	     -0.62656064	      1.89360293
      6.01500000	     35.49837988	     -1.24942079	     -2.41465269	      1.39551913	      0.67416064	     -0.20446847	    -43.85108564	      2.32060707	     -4.65754849	     -1.27189888	     20.25773489	     13.15847584	      0.00000000	     -8.50848484	     -0.34130598	     -7.11577122	    -53.11789415	      9.55717043	      2.13135756	      0.00000000	    -63.35598805	     -0.38147567	      2.01203496
      6.02000000	     35.62519785	     -1.30336894	     -2.22934855	      1.40073189	      0.67319464	     -0.20463552	    -44.54013716	      2.50137062	     -4.78865879	     -1.23923119	     20.72537210	     13.05651545	      0.00000000	     -8.25441759	     -0.37159682	     -6.82238278	    -51.45327078	      9.77794649	      2.50797480	      0.00000000	    -63.52134630	     -0.17325340	      1.95896138
      6.02500000	     35.79762796	     -1.32085517	     -2.00861984	      1.40598556	      0.67223828	     -0.20491081	    -45.29667818	      2.65726036	     -4.93034121	     -1.18770402	     21.14141167	     13.08508496	      0.00000000	     -8.09952804	     -0.33612034	     -6.45352566	    -49.66880406	      9.90596465	      2.70313120	      0.00000000	    -63.71902969	      0.05050181	      1.86710054
      6.03000000	     35.87844901	     -1.37660304	     -1.79157626	      1.41125108	      0.67121558	     -0.20516409	    -45.93768576	      2.84526740	     -5.04524993	     -1.16335524	     21.56886927	     13.12152582	      0.00000000	     -7.88399484	     -0.36830158	     -6.15171576	    -47.80927949	     10.01077889	      2.88150578	      0.00000000	    -63.82741958	      0.29355231	      1.82396984
      6.03500000	     35.86153592	     -1.48412131	     -1.55454343	      1.41645969	      0.67011973	     -0.20540748	    -46.42991261	      3.09405768	     -5.10469815	     -1.20894069	     22.01710689	     13.08763765	      0.00000000	     -7.58223700	     -0.48776635	     -5.89092554	    -45.89663540	     10.08882930	      3.12838291	      0.00000000	    -63.85870081	      0.57559695	      1.86384326
      6.04000000	     35.89082248	     -1.54819059	     -1.27703908	      1.42171929	      0.66903997	     -0.20563546	    -46.99990066	      3.33829614	     -5.23423715	     -1.21764110	     22.39377843	     13.12649769	      0.00000000	     -7.39004074	     -0.58090067	     -5.62193175	    -43.87137849	     10.15494945	      3.49981347	      0.00000000	    -63.92087081	      0.84487303	      1.81569004
      6.04500000	     35.94773413	     -1.59365949	     -1.00349865	      1.42701095	      0.66799331	     -0.20585504	    -47.60778868	      3.56172217	     -5.40617300	     -1.21756008	     22.69271061	     13.23972662	      0.00000000	     -7.29596340	     -0.65351708	     -5.38316100	    -41.72615552	     10.15744606	      3.87008560	      0.00000000	    -64.00675840	      1.09115505	      1.69966826
